<svg xmlns="http://www.w3.org/2000/svg" width="133.77" height="20.62" viewBox="0 0 133.77 20.62"><path d="M.67,21.26c-.05,0-.08-.11-.07-.21.07-1.23.69-2.83,3.31-3.76.3-.93,1.24-1.87,3.31-2.53a10.37,10.37,0,0,1,5.68-.27,1.55,1.55,0,0,0-.05-1,2.26,2.26,0,0,0-.31-.63c-.07-.07-.11-.11-.07-.15s.13,0,.26,0a.84.84,0,0,1,.49.53,1.9,1.9,0,0,1-.12,1.27,3.22,3.22,0,0,1,1.45,1c.12.17.09.21,0,.22s-.11,0-.17-.09A3.05,3.05,0,0,0,12.94,15a4.37,4.37,0,0,1-3,2.3C8.68,17.68,6,18,3.75,18.74S1,20.3.79,21.06C.75,21.21.72,21.27.67,21.26Zm10.84-5.71a3.08,3.08,0,0,0,1.19-.62,15,15,0,0,0-5.82.79c-2.4.77-2.68,1.33-2.82,1.52C7.25,16.22,9.34,16.24,11.51,15.55Z" transform="translate(-0.6 -1.29)" fill="#f26829"/><path d="M20.73,6.59a3,3,0,0,1,.45,1.13c.18.75,1,4.7,1.23,5.7s.77,3.37.92,4c.5,2,1.15,2.11,2.51,2v.07c-.6.11-2.45.36-3.14.51a11.39,11.39,0,0,0-1.74.53l0-.07c.33-.25.94-.2.52-2.39-.14-.76-.69-3.46-.85-4.21-.37-1.72-.87-4-1.06-4.74-.49-2.11-.85-2.45-2.18-2.17l0-.06c.49-.15,1.51-.39,2.07-.51.83-.18,2.27-.48,3.39-.68,3.26-.55,4.85,1,5.24,2.72.59,2.58-.87,4.66-3.63,5.25a3.35,3.35,0,0,1-1.59,0l0-.09a6.33,6.33,0,0,0,.74-.11c2.18-.47,3.16-2.2,2.66-4.52a3,3,0,0,0-3.54-2.64C22.07,6.33,21.31,6.47,20.73,6.59Z" transform="translate(-0.6 -1.29)" fill="#f26829"/><path d="M35,10.27c-.22-1.7-.48-3.42-.74-5.1-.14-.93-.57-1.36-1.72-1.32V3.78c.35,0,1.49-.12,2-.19.7-.09,2.2-.42,3.45-.54,3.77-.39,4.7,1.74,4.88,3.09a4.47,4.47,0,0,1-2.12,4.14,34.6,34.6,0,0,0,2.55,2.84,16.64,16.64,0,0,0,2.9,2.5,3.09,3.09,0,0,0,1.53.39v.07a15.49,15.49,0,0,1-2.4.24c-1.58-.07-2.31-.62-4.31-3-.78-.9-1.36-1.64-1.87-2.33-.25.06-.64.15-1.07.21a8,8,0,0,1-1.17,0c.19,1.5.44,3.07.52,3.58.32,2.1.5,2.28,1.95,2.23v.07c-.83.11-2.41.17-2.85.23s-1.44.32-2.2.42v-.07c1.1-.3,1.39-.5,1.15-2.7C35.43,13.54,35.24,11.93,35,10.27Zm2.64-6.6a16.36,16.36,0,0,0-1.8.21A2.86,2.86,0,0,1,36.16,5l.72,5.64a10.2,10.2,0,0,0,2.64-.25c1.38-.31,1.8-1.8,1.6-3.39C40.86,4.94,39.69,3.55,37.67,3.67Z" transform="translate(-0.6 -1.29)" fill="#f26829"/><path d="M53.44,13.34c.2,2.25.49,2.21,1.72,2.32v.06c-.88.06-1.92,0-2.55,0s-1.5.26-2.4.31V16c1-.26,1.34-.26,1.25-2.5,0-.76-.12-3.4-.17-4.17-.11-1.76-.3-4.12-.37-4.89-.21-2.27-.56-2.31-1.55-2.41V1.92c.64,0,1.8,0,2.44,0,.43,0,1.34-.22,2.13-.26v.07c-.89.21-1.17.29-1.07,2.57,0,.68.16,3.32.25,4.87C53.18,9.94,53.37,12.58,53.44,13.34Z" transform="translate(-0.6 -1.29)" fill="#f26829"/><path d="M62.18,7.83c-.83-2-1.47-3.54-2.18-5.12a2,2,0,0,0-2-1.35V1.29c.92,0,2,.13,2.33.13.61,0,2.45-.09,3.28-.08v.07c-1.22.05-1.67.5-1.43,1.23.49,1.45,1,2.92,1.79,4.78.56,1.4,1.33,3.19,2.25,5.24.7-1.58,1.44-3.4,2.16-5.36C69,5.72,69.45,4.35,69.85,3s.26-1.46-1-1.59V1.39c.57,0,1.84.12,2.15.13s1.36-.1,2-.1v.07c-1,.08-1.4.62-2,2-.83,1.82-1.27,2.88-1.9,4.34-1.55,3.65-2.85,6.66-3.16,7.47-.07.23-.21.68-.27.68s-.28-.46-.35-.59Z" transform="translate(-0.6 -1.29)" fill="#f26829"/><path d="M80.64,3.55c.57-1.13,1-1.85,1.13-1.84a20.81,20.81,0,0,1,.53,2c.55,2,1,3.61,1.6,5.63C84.43,11.1,85,13,85.56,14.68c.46,1.28.78,1.62,2,1.87v.07c-.87-.12-1.66-.08-2.49-.15-1.07-.08-1.29-.71-1.54-1.49-.32-1.07-.83-3-1.25-4.47a12.68,12.68,0,0,1-2.22.11,16.81,16.81,0,0,1-1.88-.17c-.4.88-1.16,2.61-1.58,3.78-.47,1.32.16,1.42.87,1.56v.07c-.59,0-1.66-.22-1.92-.24-.59,0-1.45,0-2.15-.07v-.07c.55,0,1.08,0,1.8-1.2s1.69-3.13,2.54-4.88C78.7,7.5,79.66,5.56,80.64,3.55Zm.17,1.33c-.16.28-1,2-1.17,2.35-.52,1.12-.94,1.95-1.17,2.5.54.08,1,.14,1.72.2s1.59.09,1.94.1C81.5,7.65,80.74,5.17,80.81,4.88Z" transform="translate(-0.6 -1.29)" fill="#f26829"/><path d="M102.63,8h-.06c.3-1.64-.28-2.39-1.17-2.6-1.22-.28-2.15-.44-3.41-.62a17.35,17.35,0,0,0-.34,1.8c-.52,3.21-1.09,6.9-1.35,8.77-.3,2.11.15,2.45,1.6,2.83v.07c-1.43-.22-2.47-.49-3.19-.6-.23,0-1.55-.13-2.13-.22v-.07c.93,0,1.43.07,1.76-2s1-6.42,1.39-9.15c.07-.47.2-1.48.2-1.75-1-.18-2.36-.34-3-.38-1.73-.15-2.12.36-2.51,2h-.06c0-.41.2-1.87.3-2.4.16-.78.24-.83,1-.72s2.31.51,5.38,1c2.54.39,5.14.63,6,.75.41.07.42.28.37.61A17.87,17.87,0,0,1,102.63,8Z" transform="translate(-0.6 -1.29)" fill="#f26829"/><path d="M108.69,8.51c.39-1.83.49-2.35-1-2.8V5.64c1,.23,1.89.57,2.6.73,1.34.3,3.67.76,4.63,1s1.38.24,1,1.38c-.19.53-.54,1.24-.71,1.68h-.07A1.81,1.81,0,0,0,113.8,8c-1-.31-1.77-.51-3-.77a5.91,5.91,0,0,1-.24,1.49l-1,4c.47.11,1,.25,1.47.35s1.9.43,2.36.49c.82.15,1,.08.53,1.15a10.15,10.15,0,0,1-.51,1h0c.28-.77,0-1.23-1-1.55-.86-.27-2.57-.75-2.93-.84-.28,1.07-.81,3.36-1.09,4.76s0,1.48,1.11,1.75l1.43.34c1.83.44,3-.42,3.72-2.08h.06a23.93,23.93,0,0,1-.82,2.78,1,1,0,0,1-1.36.51c-1.07-.26-2.5-.74-6-1.56-.46-.11-1.41-.22-2.13-.4v-.06c1.17.14,1.59.07,2.13-2C107.33,14.5,108.06,11.54,108.69,8.51Z" transform="translate(-0.6 -1.29)" fill="#f26829"/><path d="M119.48,17.9s0-.14.08-.21c.79-1,2.25-1.85,4.9-1,.8-.55,2.12-.74,4.17,0a10.38,10.38,0,0,1,4.7,3.2,1.55,1.55,0,0,0,.57-.83,2.12,2.12,0,0,0,.13-.7c0-.1,0-.15,0-.15s.12.06.19.18a.8.8,0,0,1,.07.72,2,2,0,0,1-.86.95,3.19,3.19,0,0,1,.55,1.67c0,.21,0,.22-.09.21s-.06-.1-.08-.17a3.09,3.09,0,0,0-.77-1.47,4.34,4.34,0,0,1-3.75,0c-1.28-.45-3.6-1.78-5.86-2.57s-3.13-.41-3.76.07C119.57,17.91,119.52,17.93,119.48,17.9Zm12.11,2a3,3,0,0,0,1.31.22,15,15,0,0,0-5.12-2.87c-2.38-.83-2.94-.55-3.17-.49C127.77,17.83,129.44,19.11,131.59,19.86Z" transform="translate(-0.6 -1.29)" fill="#f26829"/></svg>