<svg xmlns="http://www.w3.org/2000/svg" width="490.7" height="117.61" viewBox="0 0 490.7 117.61"><path d="M62,49.74H30.7a19.6,19.6,0,0,0,0,39.2H62a58.85,58.85,0,0,1,0-39.2Z" transform="translate(-11.1 -10.53)" fill="#231f20"/><path d="M482.2,49.74H172.89a58.85,58.85,0,0,1,0,39.2H482.2a19.6,19.6,0,1,0,0-39.2Z" transform="translate(-11.1 -10.53)" fill="#969696"/><path d="M172.89,49.74a58.85,58.85,0,1,0,3.36,19.6A58.83,58.83,0,0,0,172.89,49.74Z" transform="translate(-11.1 -10.53)" fill="#079549"/></svg>