<svg xmlns="http://www.w3.org/2000/svg" width="480" height="369.78" viewBox="0 0 480 369.78"><circle cx="240" cy="15" r="15" fill="#010101"/><circle cx="192.1" cy="23.77" r="15" fill="#010101"/><circle cx="150.18" cy="47.99" r="15" fill="#010101"/><circle cx="119.05" cy="85.08" r="15" fill="#010101"/><path d="M235.67,306.21s0,0,0,0l-19.31-48.29A100,100,0,1,0,46.45,331.39v88.7h120V385.3c27.57,0,45-17.64,45-45.21v-20h15a10,10,0,0,0,10-10A20.28,20.28,0,0,0,235.67,306.21ZM76.45,300.1a15,15,0,1,1,15-15A15,15,0,0,1,76.45,300.1Zm0-40a15,15,0,1,1,15-15A15,15,0,0,1,76.45,260.1Zm40,40a15,15,0,1,1,15-15A15,15,0,0,1,116.45,300.1Zm0-40a15,15,0,1,1,15-15A15,15,0,0,1,116.45,260.1Zm0-40a15,15,0,1,1,15-15A15,15,0,0,1,116.45,220.1Zm40,80a15,15,0,1,1,15-15A15,15,0,0,1,156.45,300.1Zm0-40a15,15,0,1,1,15-15A15,15,0,0,1,156.45,260.1Z" transform="translate(-16.45 -50.31)" fill="#010101"/><circle cx="287.3" cy="23.77" r="15" fill="#010101"/><circle cx="329.23" cy="47.99" r="15" fill="#010101"/><circle cx="360.35" cy="85.08" r="15" fill="#010101"/><path d="M396.45,160.1a100.07,100.07,0,0,0-99.89,97.79l-19.3,48.28s0,0,0,.05a20.31,20.31,0,0,0-.78,3.87,10,10,0,0,0,10,10h15v20c0,27.57,17.44,45.21,45,45.21v34.79h120v-88.7a99.91,99.91,0,0,0-70-171.29Zm0,140a15,15,0,1,1,15-15A15,15,0,0,1,396.45,300.1Zm0-40a15,15,0,1,1,15-15A15,15,0,0,1,396.45,260.1Zm0-40a15,15,0,1,1,15-15A15,15,0,0,1,396.45,220.1Z" transform="translate(-16.45 -50.31)" fill="#010101"/></svg>